<svg xmlns="http://www.w3.org/2000/svg" xmlns:xlink="http://www.w3.org/1999/xlink" width="48.741" height="40.596" viewBox="0 0 48.741 40.596"><defs><style>.a{fill:none;}.b{fill:#fff;}.c{fill:#3788e2;}.d{opacity:0.94;}.e{clip-path:url(#a);}.f{clip-path:url(#b);}.g{fill:#e21b54;}.h{fill:#6625a3;}.i{fill:#08c1f2;}.j{fill:#ff4d4d;}.k{fill:#ff8121;}.l{fill:#ff971a;}</style><clipPath id="a"><rect class="a" width="9.844" height="8.813"/></clipPath><clipPath id="b"><rect class="a" width="9.844" height="8.81"/></clipPath></defs><g transform="translate(-160.407 -351.436)"><path class="b" d="M211.332,392.793a.3.3,0,0,1-.028.076.32.32,0,0,1-.432.134,2.525,2.525,0,0,0-2.079-.341,1.568,1.568,0,0,0-.827.851.32.32,0,1,1-.606-.2,2.194,2.194,0,0,1,1.2-1.241,3.109,3.109,0,0,1,2.614.369.318.318,0,0,1,.162.357" transform="translate(-32.346 -27.897)"/><path class="c" d="M244.5,388.807l1.832,9.673a13.83,13.83,0,0,0,7.153-1.9,13.109,13.109,0,0,0,2.008-1.457,56.354,56.354,0,0,0-7.994-5.142,8.108,8.108,0,0,0-3-1.178" transform="translate(-57.955 -25.754)"/><g class="d" transform="translate(179.324 371.023)"><g transform="translate(0 0)"><g class="e"><g transform="translate(0 0.001)"><g class="f"><path class="g" d="M231.073,420.132q-.376-1.989-.753-3.979a12.038,12.038,0,0,1-4.214-.812,11.622,11.622,0,0,1-1.766-.889c-.937,2.747-1.938,5.462-2.87,8.2q-.1.306-.207.614l8.242-.987a1.817,1.817,0,0,0,1.569-2.143" transform="translate(-221.263 -414.452)"/></g></g></g></g></g><path class="h" d="M233.769,389.222c-.878.721-.91,2.176-1.266,3.38-.415,1.4-.872,2.781-1.341,4.155a11.665,11.665,0,0,0,1.766.89,12.042,12.042,0,0,0,4.214.812l-1.832-9.673a2.07,2.07,0,0,0-1.54.436" transform="translate(-48.76 -25.733)"/><path class="i" d="M234.376,364.02a2.6,2.6,0,0,1-.936-.973.98.98,0,0,1,.271-1.22c.452-.278,1.022,0,1.507.217a5.577,5.577,0,0,0,2.384.455,5.951,5.951,0,0,0,2.088-.437c.027-.012.053-.026.081-.039a11.07,11.07,0,0,0-6.2-9.285c-4.464-2.126-12.216-1.912-15.2,2.625a13.052,13.052,0,0,0-1.7,3.785l5.161-.571a2.411,2.411,0,0,1,3.128,2.578l.36,1.9a8.1,8.1,0,0,1,3,1.178,56.371,56.371,0,0,1,7.994,5.142,10.848,10.848,0,0,0,2.462-3.058,18.7,18.7,0,0,1-4.408-2.3" transform="translate(-38.78 0)"/><path class="j" d="M243.051,414.9a26.8,26.8,0,0,0-4.233-4.752c-.395-.35-.8-.685-1.2-1.011a13.065,13.065,0,0,1-2.009,1.457,13.829,13.829,0,0,1-7.153,1.9q.378,1.989.754,3.979a1.817,1.817,0,0,1-1.569,2.143l-8.241.988a13.815,13.815,0,0,0-.837,3.917,5.992,5.992,0,0,0,1.5,4.437c1.453,1.354,3.341.8,4.928.177l6.9-2.7c-.032-.048-.072-.092-.1-.142a3.622,3.622,0,0,1-.342-1.721,19.032,19.032,0,0,1,.093-2.215c.093-.92.7-1.444,1.219-1.031,1.337,1.063,2.684,2.119,3.985,3.212l4.727-1.845c2.455-.96,3.241-4.386,1.575-6.793" transform="translate(-40.075 -39.766)"/><path class="b" d="M271,428.033a.365.365,0,0,1-.089.016.358.358,0,0,1-.377-.339,2.83,2.83,0,0,0-.868-2.2,1.751,1.751,0,0,0-1.294-.305.359.359,0,0,1-.153-.7,2.465,2.465,0,0,1,1.882.437,3.485,3.485,0,0,1,1.15,2.727.359.359,0,0,1-.25.361" transform="translate(-74.105 -50.332)"/><path class="b" d="M255.278,365.5a.359.359,0,0,1-.381.42,2.828,2.828,0,0,0-2.289.575,1.752,1.752,0,0,0-.472,1.243.359.359,0,1,1-.715.06,2.462,2.462,0,0,1,.678-1.809,3.485,3.485,0,0,1,2.853-.785.359.359,0,0,1,.325.295" transform="translate(-62.72 -9.473)"/><path class="i" d="M297.9,353.455c0-.353-.026-.464-.255-.6a1.8,1.8,0,0,0-1.958.119,31.2,31.2,0,0,0-3.579,2.676.242.242,0,0,1-.178.076l-1.464-2.062c-.007-.011-.015-.021-.023-.032l0,0h0a.766.766,0,0,0-.664-.36c-1.331.1-.013,2.732.277,3.546.478,1.347,2.251,1.433,3.482.711a20.375,20.375,0,0,0,3.839-2.906,1.569,1.569,0,0,0,.524-1.167" transform="translate(-88.755 -0.816)"/><path class="j" d="M282.433,466.258c.29-.007.38-.032.486-.221a1.472,1.472,0,0,0-.141-1.6,25.371,25.371,0,0,0-2.268-2.871.2.2,0,0,1-.066-.144l1.656-1.243.026-.019,0,0h0a.627.627,0,0,0,.28-.552c-.108-1.087-2.236.05-2.9.3-1.092.421-1.123,1.874-.507,2.866a16.659,16.659,0,0,0,2.463,3.079,1.288,1.288,0,0,0,.966.4" transform="translate(-81.453 -74.226)"/><path class="k" d="M220.264,386.724c.469-1.375.926-2.755,1.34-4.155.357-1.205.389-2.661,1.267-3.381a2.062,2.062,0,0,1,1.54-.436q-.18-.949-.36-1.9a2.411,2.411,0,0,0-3.129-2.578l-5.16.571a10.344,10.344,0,0,0,4.5,11.876" transform="translate(-37.862 -15.701)"/><path class="l" d="M194.031,376.246l-4.018.445c-1.987.22-6.692-.4-6.155,2.627q.93,5.227,1.86,10.454c1-.239,6.643-1.537,5.556-.162a13.811,13.811,0,0,1-4.931,3.67q.253,1.431.508,2.859a1.5,1.5,0,0,0,1.988,1.587l6.619-.793q.1-.308.207-.614c.932-2.734,1.933-5.449,2.87-8.2a10.343,10.343,0,0,1-4.5-11.876" transform="translate(-16.132 -17.098)"/><path class="b" d="M204.676,392.979a.313.313,0,0,1-.044.067.32.32,0,0,1-.451.039,2.529,2.529,0,0,0-1.96-.778,1.571,1.571,0,0,0-.992.656.32.32,0,0,1-.55-.329,2.2,2.2,0,0,1,1.436-.958,3.114,3.114,0,0,1,2.478.92.32.32,0,0,1,.082.384" transform="translate(-27.722 -27.712)"/><path class="l" d="M163.688,386.352c-.3-.135-.409-.153-.612-.008a1.686,1.686,0,0,0-.639,1.726,29.166,29.166,0,0,0,.941,4.087.226.226,0,0,1,0,.182l-2.325.475-.036.007h0a.719.719,0,0,0-.56.435c-.421,1.179,2.34,1.046,3.149,1.107,1.338.1,2.085-1.39,1.932-2.72a19.153,19.153,0,0,0-1.04-4.4,1.479,1.479,0,0,0-.8-.892" transform="translate(0 -23.987)"/></g></svg>