<svg xmlns="http://www.w3.org/2000/svg" width="24" height="24" viewBox="0 0 24 24"><defs><style>.a{fill:#2a044a;}</style></defs><g transform="translate(-1366 -1372)"><path class="a" d="M1350.062,1708.783a.942.942,0,0,0,1.249.428.857.857,0,0,0,.46-1.192,45.912,45.912,0,0,1-2.135-5.255,17.585,17.585,0,0,1-.23-2.414.471.471,0,0,1,.328-.458l4.041-1.13a.9.9,0,0,0,.657-1.1.993.993,0,0,0-1.182-.612,30.025,30.025,0,0,1-5.092,1.131,30.353,30.353,0,0,1-5.027-1.1,1.018,1.018,0,0,0-1.216.55.878.878,0,0,0,.657,1.131l4.042,1.13a.435.435,0,0,1,.328.458,17.818,17.818,0,0,1-.23,2.414,45.9,45.9,0,0,1-2.135,5.255.881.881,0,0,0,.46,1.192.93.93,0,0,0,.395.092.9.9,0,0,0,.854-.52l1.939-3.666Z" transform="translate(29.782 -317.575)"/><circle class="a" cx="1.711" cy="1.711" r="1.711" transform="translate(1376.289 1375.905)"/><path class="a" d="M1348.219,1714.135a12,12,0,1,1,12-12A12.014,12.014,0,0,1,1348.219,1714.135Zm0-22.474a10.474,10.474,0,1,0,10.473,10.474A10.486,10.486,0,0,0,1348.219,1691.661Z" transform="translate(29.782 -318.135)"/></g></svg>