<svg xmlns="http://www.w3.org/2000/svg" width="30.749" height="34.177" viewBox="0 0 30.749 34.177"><defs><style>.a{fill:#126ce3;}</style></defs><path class="a" d="M1327.9,2974.262a15.238,15.238,0,0,0-21.686,1.795,15.711,15.711,0,0,0,1.321,21.533l-.225,6.4a.719.719,0,0,0,1.119.623l.828-.554,4.431-2.965a15.236,15.236,0,0,0,15.978-4.894,15.712,15.712,0,0,0-1.766-21.933Zm-8.664,20.806v.038a1.366,1.366,0,0,1-2.732-.038v-1.241a1.366,1.366,0,0,1,1.344-1.388h.043a1.366,1.366,0,0,1,1.345,1.388Zm0-6.563v1.354a1.367,1.367,0,0,1-2.733-.038V2987.5a1.376,1.376,0,0,1,.2-.908c.02-.033.042-.065.064-.1l.022-.026.035-.042.06-.067.022-.022c.025-.025.051-.048.078-.071l.015-.018a1.366,1.366,0,0,1,.847-.313h.088a3.106,3.106,0,1,0-3.027-3.135v.03a1.366,1.366,0,0,1-2.732-.055A5.785,5.785,0,0,1,1317.9,2977v.012a5.849,5.849,0,0,1,1.334,11.493Z" transform="translate(-1302.562 -2970.554)"/></svg>