<svg xmlns="http://www.w3.org/2000/svg" width="19.118" height="18.837" viewBox="0 0 19.118 18.837"><defs><style>.a{fill:#1b1464;}</style></defs><g transform="translate(-978.715 -1832.885)"><path class="a" d="M996.9,1835.821a3.306,3.306,0,0,0-4.56,0l-8.587,8.579a.809.809,0,0,0,1.14,1.124l8.579-8.563a1.665,1.665,0,0,1,2.288,0,1.616,1.616,0,0,1,0,2.287h0l-.315.316h0l-9.574,9.566a3.309,3.309,0,0,1-4.569,0,3.237,3.237,0,0,1,0-4.575l0,0,10.294-10.286a.808.808,0,0,0,.005-1.143l-.005-.005a.809.809,0,0,0-1.14,0l-10.294,10.294a4.852,4.852,0,0,0,6.81,6.912l.055-.055,1.27-1.3h0l8.571-8.571a3.235,3.235,0,0,0,.035-4.574Z"/></g></svg>