<svg xmlns="http://www.w3.org/2000/svg" width="24" height="23.999" viewBox="0 0 24 23.999"><defs><style>.a{fill:#7931cd;}</style></defs><g transform="translate(-139 -15)"><path class="a" d="M43.647,1694.442h-1.8v-1.8a1.8,1.8,0,0,0-1.8-1.8h-3.6a1.8,1.8,0,0,0-1.8,1.8v1.8h-1.8a3,3,0,0,0-3,3v2.4a1.8,1.8,0,0,0,1.8,1.8h3v-.6a.6.6,0,1,1,1.2,0v.6h4.8v-.6a.6.6,0,1,1,1.2,0v.6h3a1.8,1.8,0,0,0,1.8-1.8v-2.4A3,3,0,0,0,43.647,1694.442Zm-7.8-1.8a.6.6,0,0,1,.6-.6h3.6a.6.6,0,0,1,.6.6v1.8h-4.8Z" transform="translate(112.753 -1675.842)"/><path class="a" d="M28.722,1703.766h-.6a1.8,1.8,0,0,0-1.8,1.8v3.6a3,3,0,0,0,2.442,2.947,4.249,4.249,0,0,1-.042-.546Z" transform="translate(112.678 -1675.567)"/><path class="a" d="M48.071,1703.766h-.6v7.8a4.249,4.249,0,0,1-.042.546,3,3,0,0,0,2.442-2.947v-3.6A1.8,1.8,0,0,0,48.071,1703.766Z" transform="translate(113.128 -1675.567)"/><path class="a" d="M41.846,1702.6v1.2a.6.6,0,1,1-1.2,0v-1.2h-4.8v1.2a.6.6,0,1,1-1.2,0v-1.2h-3a2.95,2.95,0,0,1-1.8-.6v9.6a3,3,0,0,0,3,3h10.8a3,3,0,0,0,3-3V1702a2.951,2.951,0,0,1-1.8.6Z" transform="translate(112.753 -1675.604)"/></g></svg>