<svg xmlns="http://www.w3.org/2000/svg" width="22.142" height="16.357" viewBox="0 0 22.142 16.357"><g transform="translate(-1378.954 -243.558)"><path d="M1386.182,259.165a1.11,1.11,0,0,1-.786-.324l-5.241-5.167a1.131,1.131,0,1,1,1.581-1.619l4.446,4.4,12.129-11.825a1.132,1.132,0,1,1,1.581,1.62l-12.915,12.591a1.114,1.114,0,0,1-.8.324" fill="#fff"/><path d="M1386.182,259.165a1.11,1.11,0,0,1-.786-.324l-5.241-5.167a1.131,1.131,0,1,1,1.581-1.619l4.446,4.4,12.129-11.825a1.132,1.132,0,1,1,1.581,1.62l-12.915,12.591A1.114,1.114,0,0,1,1386.182,259.165Z" fill="none" stroke="#fff" stroke-miterlimit="10" stroke-width="1.5"/></g></svg>