<svg xmlns="http://www.w3.org/2000/svg" width="20" height="19.998" viewBox="0 0 20 19.998"><defs><style>.a,.b{fill:#08b76c;}.a{opacity:0;}</style></defs><path class="a" d="M0,0H20V20H0Z" transform="translate(0.002)"/><path class="b" d="M18.065,9.815,8.133,0,6.566,1.548,9.211,4.161,3.489,9.815a1.623,1.623,0,0,0,0,2.327L9.6,18.181a1.677,1.677,0,0,0,2.355,0l6.11-6.038a1.623,1.623,0,0,0,0-2.327ZM5.455,10.979,10.777,5.72,16.1,10.979Zm15.32,1.647s-2.222,2.382-2.222,3.843a2.222,2.222,0,0,0,4.444,0C23,15.008,20.776,12.626,20.776,12.626Z" transform="translate(-2.998)"/></svg>