<svg xmlns="http://www.w3.org/2000/svg" width="33.165" height="30.792" viewBox="0 0 33.165 30.792"><defs><style>.a{fill:#ff4d4d;}</style></defs><g transform="translate(-6659.753 -1172.317)"><path class="a" d="M5782.687,1812.22a9.675,9.675,0,0,1,9.666-9.644v-3.366a.868.868,0,0,0-.229-.579l-.01-.019-.015-.018-.011-.011-7.149-7.148v0a.883.883,0,0,0-.63-.266h-14.527a2.435,2.435,0,0,0-2.435,2.434v25.923a2.435,2.435,0,0,0,2.435,2.435h20.137a2.428,2.428,0,0,0,.925-.185A9.692,9.692,0,0,1,5782.687,1812.22Zm1.428-19.06,6.236,6.219h-6.236Z" transform="translate(892.406 -618.85)"/><path class="a" d="M5794.147,1821.9c.063,0,.125.009.188.009a8.157,8.157,0,0,0,8.138-8.18,8.229,8.229,0,0,0-8.138-8.139h-.021a8.18,8.18,0,0,0-5.7,2.327c-.019.018-.04.033-.058.051a8.17,8.17,0,0,0-1.26,1.63c-.049.082-.1.161-.15.245a8.065,8.065,0,0,0-.989,3.885A8.19,8.19,0,0,0,5794.147,1821.9Zm-4.42-8.568h0a.826.826,0,0,1,.244-.589.518.518,0,0,1,.052-.035.819.819,0,0,1,.538-.21h0a.834.834,0,0,1,.834.834v2.156h0l6.081-6.082a.834.834,0,0,1,.591-.244h0c.008,0,.018,0,.027.005a.821.821,0,0,1,.561.238.773.773,0,0,1,.074.11.822.822,0,0,1-.074,1.069l-4.342,4.342-1.74,1.74h2.156a.834.834,0,0,1,.835.834.874.874,0,0,1-.835.834h-4.169a138.486,138.486,0,0,1-.319-.065,1.031,1.031,0,0,1-.451-.45.858.858,0,0,1-.062-.31v-4.179Z" transform="translate(12479.071 3007.135) rotate(180)"/></g></svg>