<svg xmlns="http://www.w3.org/2000/svg" width="23.376" height="18.463" viewBox="0 0 23.376 18.463"><defs><style>.a{fill:#1b1464;}</style></defs><g transform="translate(-974.586 -1870.763)"><path class="a" d="M997.184,1870.763H987.031a.777.777,0,0,0-.742.546l-4.744,14.666-1.947-6.561a.777.777,0,0,0-.734-.521h-3.5a.778.778,0,1,0,0,1.556h2.948l2.54,8.256a.778.778,0,0,0,1.477-.025l5.274-16.361h9.581a.778.778,0,0,0,0-1.556Z"/><path class="a" d="M995.065,1878.669c-.046-.069-.067-.092-.067-.16a.3.3,0,0,1,.067-.161l3.061-3.994a.8.8,0,0,0,.159-.457.977.977,0,0,0-.912-.845.611.611,0,0,0-.572.3l-2.717,3.677c-.046.069-.046.137-.115.137s-.069-.069-.113-.137l-2.717-3.677a.611.611,0,0,0-.572-.3.977.977,0,0,0-.912.845.8.8,0,0,0,.159.457l3.059,3.994a.3.3,0,0,1,.069.161c0,.069-.023.092-.069.16l-3.31,4.451a.775.775,0,0,0-.183.434.977.977,0,0,0,.914.868.658.658,0,0,0,.572-.3l2.967-4.111c.046-.069.067-.137.136-.137s.092.069.138.137l2.967,4.111a.658.658,0,0,0,.572.3.977.977,0,0,0,.914-.868.776.776,0,0,0-.183-.434Z" transform="translate(-0.787 2)"/></g></svg>