<svg xmlns="http://www.w3.org/2000/svg" width="28.694" height="34.238" viewBox="0 0 28.694 34.238"><defs><style>.a{fill:#126ce3;}</style></defs><path class="a" d="M1260.119,2881.451a71.14,71.14,0,0,0-1.205-7.978.8.8,0,0,0-.812-.637h-.067c-5.1-.02-9.588-1.731-11.153-3.795a.8.8,0,0,0-.766-.524v.006a.808.808,0,0,0-.66.36c-1.465,2.124-6.108,3.931-11.42,3.962h-.031a.766.766,0,0,0-.1-.011.8.8,0,0,0-.791.637,71.111,71.111,0,0,0-1.2,7.978c-.4,4.367-.486,9.482,1.28,12.784,1.322,2.473,4.451,4.462,7.245,5.975a48.384,48.384,0,0,0,5.05,2.379.931.931,0,0,0,1.071,0h0a47.632,47.632,0,0,0,5.044-2.372c2.794-1.513,5.919-3.5,7.241-5.975C1260.6,2890.933,1260.522,2885.818,1260.119,2881.451Zm-12.837,11.935a.223.223,0,0,1,0,.036,1.27,1.27,0,0,1-2.539-.036v-1.154a1.27,1.27,0,0,1,1.25-1.289h.04a1.269,1.269,0,0,1,1.249,1.289Zm0-6.1v1.259a1.27,1.27,0,1,1-2.539-.036v-2.152a1.272,1.272,0,0,1,.189-.843c.018-.03.038-.06.059-.089l.02-.024.033-.039c.018-.022.037-.042.056-.062l.02-.021c.024-.023.048-.045.073-.066l.013-.017a1.273,1.273,0,0,1,.787-.291h.083a2.886,2.886,0,1,0-2.813-2.912v.027a1.269,1.269,0,1,1-2.538-.051,5.375,5.375,0,0,1,5.319-5.372v.011a5.435,5.435,0,0,1,1.239,10.678Z" transform="translate(-1231.665 -2868.517)"/></svg>