<svg xmlns="http://www.w3.org/2000/svg" width="36.552" height="33.229" viewBox="0 0 36.552 33.229"><defs><style>.a{fill:#08b76c;}</style></defs><g transform="translate(-1227.736 -2710.21)"><path class="a" d="M1243.52,2728.215c1.183-.683,2.26-2.74,2.446-5.544h-2.446Z"/><path class="a" d="M1241.858,2728.215v-5.544h-2.446C1239.6,2725.475,1240.675,2727.532,1241.858,2728.215Z"/><path class="a" d="M1239.412,2721.01h2.446v-5.544C1240.675,2716.149,1239.6,2718.206,1239.412,2721.01Z"/><path class="a" d="M1236.127,2721.01h1.626a11.54,11.54,0,0,1,1.189-4.651A6.638,6.638,0,0,0,1236.127,2721.01Z"/><path class="a" d="M1236.127,2722.671a6.636,6.636,0,0,0,2.815,4.651,11.534,11.534,0,0,1-1.189-4.651Z"/><path class="a" d="M1246.436,2727.322a6.632,6.632,0,0,0,2.815-4.651h-1.626A11.536,11.536,0,0,1,1246.436,2727.322Z"/><path class="a" d="M1253.488,2710.21h-21.6a4.159,4.159,0,0,0-4.154,4.154v14.953a4.159,4.159,0,0,0,4.154,4.154h5.815v4.153a.831.831,0,0,0,1.329.665l6.424-4.818h8.03a4.159,4.159,0,0,0,4.154-4.154v-14.953A4.159,4.159,0,0,0,1253.488,2710.21Zm-10.8,19.938a8.307,8.307,0,1,1,8.307-8.307A8.307,8.307,0,0,1,1242.689,2730.148Z"/><path class="a" d="M1246.436,2716.359a11.542,11.542,0,0,1,1.189,4.651h1.626A6.634,6.634,0,0,0,1246.436,2716.359Z"/><path class="a" d="M1243.52,2715.466v5.544h2.446C1245.78,2718.206,1244.7,2716.149,1243.52,2715.466Z"/><path class="a" d="M1260.134,2715.2a.83.83,0,1,0,0,1.661,2.5,2.5,0,0,1,2.492,2.492V2734.3a2.5,2.5,0,0,1-2.492,2.493h-6.646a.829.829,0,0,0-.83.829h0v3.323l-5.317-3.987a.83.83,0,1,0-1,1.329h0l6.645,4.984a.831.831,0,0,0,1.329-.664h0v-4.154h5.815a4.159,4.159,0,0,0,4.154-4.154v-14.953A4.159,4.159,0,0,0,1260.134,2715.2Z"/></g></svg>