<svg xmlns="http://www.w3.org/2000/svg" width="37" height="28.529" viewBox="0 0 37 28.529"><defs><style>.a{fill:#ff4d4d;stroke:rgba(0,0,0,0);stroke-miterlimit:10;}</style></defs><g transform="translate(-6340.794 -1174.901)"><path class="a" d="M20.682,27.529h-1.3a.518.518,0,0,1-.517-.517V25.681l0-23.979a1.7,1.7,0,0,1,1.7-1.7H34.3A1.7,1.7,0,0,1,36,1.7V23.981a1.7,1.7,0,0,1-1.7,1.7H22.121a.916.916,0,0,0-.923.924v.407A.517.517,0,0,1,20.682,27.529Zm1.791-7.322a.91.91,0,1,0,0,1.821h5.249a.91.91,0,1,0,0-1.821Zm0-4.139a.911.911,0,0,0,0,1.822h9.814a.911.911,0,1,0,0-1.822Zm0-4.139a.911.911,0,0,0,0,1.822h9.814a.911.911,0,1,0,0-1.822Zm0-4.137a.91.91,0,1,0,0,1.82h9.814a.91.91,0,1,0,0-1.82Zm0-4.138a.909.909,0,1,0,0,1.819h9.814a.909.909,0,1,0,0-1.819Zm-5.85,23.875h-1.3a.517.517,0,0,1-.516-.517V26.6a.916.916,0,0,0-.923-.924H1.7a1.7,1.7,0,0,1-1.7-1.7V1.7A1.7,1.7,0,0,1,1.7,0H15.441a1.7,1.7,0,0,1,1.7,1.7V25.681l0,1.331A.518.518,0,0,1,16.623,27.529ZM3.713,20.208a.91.91,0,1,0,0,1.821h9.815a.91.91,0,1,0,0-1.821Zm0-4.139a.911.911,0,1,0,0,1.822h9.815a.911.911,0,1,0,0-1.822Zm0-4.139a.911.911,0,1,0,0,1.822h9.815a.911.911,0,1,0,0-1.822Zm0-4.137a.91.91,0,1,0,0,1.82h9.815a.91.91,0,1,0,0-1.82Zm0-4.138a.909.909,0,1,0,0,1.819h9.815a.909.909,0,1,0,0-1.819Z" transform="translate(6341.294 1175.401)"/></g></svg>