<svg xmlns="http://www.w3.org/2000/svg" width="80" height="24.167" viewBox="0 0 80 24.167"><defs><style>.a{fill:#4ec2f2;}</style></defs><g transform="translate(-41 -1369)"><path class="a" d="M553.437,380.83a7.447,7.447,0,0,0-6.508-7.22,7.7,7.7,0,0,0-1.181-.061,7.483,7.483,0,0,0-7.281,7.689,7.488,7.488,0,0,0,7.48,7.284l.209,0a7.487,7.487,0,0,0,7.281-7.689m-2.827.078a4.659,4.659,0,1,1-6.843-3.982,4.59,4.59,0,0,1,2.058-.549l.123,0a4.667,4.667,0,0,1,4.641,4.264l.007.076c.006.064.012.128.014.193" transform="translate(-444.587 1004.415)"/><path class="a" d="M603.149,380.83a7.448,7.448,0,0,0-6.508-7.22,7.7,7.7,0,0,0-1.181-.061,7.483,7.483,0,0,0-7.281,7.689,7.488,7.488,0,0,0,7.479,7.284l.21,0a7.491,7.491,0,0,0,7.26-6.9,7.631,7.631,0,0,0,.02-.789m-2.827.078a4.66,4.66,0,1,1-6.843-3.982,4.589,4.589,0,0,1,2.058-.549l.123,0a4.667,4.667,0,0,1,4.641,4.264l.007.076c.006.064.012.128.014.193" transform="translate(-482.152 1004.415)"/><path class="a" d="M334.669,386.392a1.842,1.842,0,0,0-.289-1.53,1.672,1.672,0,0,0-1.338-.565h-.025a1.849,1.849,0,0,0-1.579.977,1.648,1.648,0,0,1-1.036.563,4.986,4.986,0,0,1-3.157-.654l-.046-.028,0,0a4.383,4.383,0,0,1-1.893-3.173c-.016-.134-.024-.268-.029-.392v-.057c0-.038,0-.076,0-.114s0-.075,0-.113v-.056c.005-.125.012-.258.029-.393a4.385,4.385,0,0,1,1.893-3.172h0l.043-.033a4.981,4.981,0,0,1,3.157-.653,1.646,1.646,0,0,1,1.036.563,1.85,1.85,0,0,0,1.579.976h.024a1.675,1.675,0,0,0,1.338-.566,1.84,1.84,0,0,0,.289-1.529,1.641,1.641,0,0,0-.566-.9,6.641,6.641,0,0,0-4.351-1.523,8.049,8.049,0,0,0-1.307.108,7.558,7.558,0,0,0-5.277,3.439,7.29,7.29,0,0,0,0,7.707,7.559,7.559,0,0,0,5.278,3.441,6.908,6.908,0,0,0,5.658-1.415,1.642,1.642,0,0,0,.566-.9" transform="translate(-281.064 1004.063)"/><path class="a" d="M391.208,388.67a1.819,1.819,0,0,0,1.357-.439,1.516,1.516,0,0,0,.424-1.116,1.731,1.731,0,0,0-.781-1.391c-.779-.48-.906-.786-.906-2.182v-8.286a1.384,1.384,0,0,0-1.444-1.384,1.241,1.241,0,0,0-1.269,1.384v.29l-.075-.06a7.445,7.445,0,0,0-3.721-1.592,7.522,7.522,0,0,0-.972-.063l-.2,0a7.442,7.442,0,0,0,.2,14.881c.069,0,.139,0,.208,0a7.43,7.43,0,0,0,4.728-1.863l.051-.045.023.064a2.576,2.576,0,0,0,2.379,1.8m-3.873-4.452a4.591,4.591,0,0,1-3.387,1.643l-.122,0a4.587,4.587,0,0,1-2.156-8.64,4.526,4.526,0,0,1,2.027-.541l.121,0a4.6,4.6,0,0,1,4.573,4.2l.007.074c.007.063.012.126.014.19a4.577,4.577,0,0,1-1.077,3.072" transform="translate(-322.108 1004.201)"/><path class="a" d="M448.638,380.3l0,4.772v2.08a1.4,1.4,0,0,1-1.438,1.417,1.241,1.241,0,0,1-.919-.4,1.554,1.554,0,0,1-.449-1.127l0-.092.012-.01-.012,0v-8.148c0-1.4-.127-1.7-.906-2.182a1.73,1.73,0,0,1-.781-1.391,1.516,1.516,0,0,1,.423-1.116,1.819,1.819,0,0,1,1.358-.439,2.851,2.851,0,0,1,.713.131,2.6,2.6,0,0,1,1.666,1.673l.023.064.051-.045s.164-.126.363-.27c.121-.088.242-.175.365-.254l0,0c.054-.035.105-.067.151-.093l-.01.011a6.968,6.968,0,0,1,3.983-1.26,4.9,4.9,0,0,1,2.743.77,4.966,4.966,0,0,1,1.775,2.093,6.776,6.776,0,0,1,.606,2.868v5.368h0v.262h0v2.086a1.5,1.5,0,0,1-.031.3,1.391,1.391,0,0,1-1.41,1.162l-.017,0-.022,0a1.279,1.279,0,0,1-.946-.416,1.6,1.6,0,0,1-.463-1.16l0-.274,0,0v0h0v-2.918l0,0v-4.122a2.725,2.725,0,0,0-3.012-2.97s-3.818.068-3.818,3.649" transform="translate(-373.313 1004.366)"/><path class="a" d="M517.416,337.531a.738.738,0,0,0-.247-.419.894.894,0,0,0-1.179-.035c-3.052,2.538-9.555,3.988-13.159,4.626l-1.4.254.238-1.485c.091-.573.194-1.213-.243-1.591a1.7,1.7,0,0,0-.844-.368l-.083-.013a1.625,1.625,0,0,0-1.414.457,2.1,2.1,0,0,0-.473,1l-.4,2.468-.1.013c-.566.077-.9.117-.9.117a15.478,15.478,0,0,1-3.188-.047,2.759,2.759,0,0,0-1.081-.006.851.851,0,0,0-.566.612,1.648,1.648,0,0,0,.192,1.276,2.757,2.757,0,0,0,2.074,1.233,9.579,9.579,0,0,0,2.692-.22.155.155,0,0,1,.033,0,.142.142,0,0,1,.1.039.137.137,0,0,1,.042.125l-.165,1.027-.276,1.878-.09,1.151c-.063.919-.09,2.173-.09,3.007a17.013,17.013,0,0,0,.264,3.115,8.536,8.536,0,0,0,.965,2.748,5.239,5.239,0,0,0,4.869,2.554,11.576,11.576,0,0,0,4.364-1.254,1.95,1.95,0,0,0-.272-.142,1.479,1.479,0,0,1-.349-.2,5.431,5.431,0,0,1-1.539-1.953,2.311,2.311,0,0,1-1.562.538,3.045,3.045,0,0,1-2.694-1.316,9.236,9.236,0,0,1-.768-4.421c0-.59.022-1.735.062-2.694a35.782,35.782,0,0,1,.507-4.409l.008-.047.046-.007a72.158,72.158,0,0,0,9.882-2.373,23.654,23.654,0,0,0,5.636-2.264,3.087,3.087,0,0,0,1.1-2.968" transform="translate(-409.722 1032.128)"/></g></svg>