<svg xmlns="http://www.w3.org/2000/svg" width="27.766" height="34.192" viewBox="0 0 27.766 34.192"><defs><style>.a{fill:#2a044a;}.b{fill:#ffc800;fill-rule:evenodd;}</style></defs><g transform="translate(-6773.384 -1569.219)"><path class="a" d="M5788.81,2139.421v8.164h8.93l-8.886-8.885Z" transform="translate(1002.406 -568.85)"/><g transform="translate(1002.406 -568.85)"><path class="b" d="M5789.6,2140.282l6.925,6.906H5789.6Zm8.893,6.075a.965.965,0,0,1,.254.643v22.558a2.7,2.7,0,0,1-2.7,2.7h-22.36a2.7,2.7,0,0,1-2.7-2.7v-28.786a2.7,2.7,0,0,1,2.7-2.7h16.132a.977.977,0,0,1,.7.295l0,0,7.937,7.937.012.012.017.02Z"/></g><path class="a" d="M5795.437,2154.679h-11.546a.738.738,0,0,0-.705.519l-3.029,9.122-1.85-6.234a.739.739,0,0,0-.7-.495h-3.325a.739.739,0,1,0,0,1.478h2.8l2.413,7.845a.739.739,0,0,0,1.4-.023l3.532-10.734h11a.739.739,0,0,0,0-1.478Z" transform="translate(1002.406 -568.85)"/><path class="a" d="M5789.278,2162.727c-.037-.056-.055-.075-.055-.131a.249.249,0,0,1,.055-.13l2.491-3.252a.64.64,0,0,0,.129-.371.8.8,0,0,0-.743-.688.5.5,0,0,0-.464.242l-2.211,2.991c-.038.056-.038.112-.093.112s-.056-.056-.093-.112l-2.211-2.991a.5.5,0,0,0-.465-.242.8.8,0,0,0-.743.688.642.642,0,0,0,.13.371l2.49,3.252a.248.248,0,0,1,.056.13c0,.056-.019.075-.056.131l-2.7,3.623a.636.636,0,0,0-.148.353.794.794,0,0,0,.743.706.535.535,0,0,0,.465-.241l2.415-3.345c.038-.056.056-.112.112-.112s.074.056.111.112l2.416,3.345a.534.534,0,0,0,.464.241.8.8,0,0,0,.744-.706.631.631,0,0,0-.149-.353Z" transform="translate(1002.406 -568.85)"/></g></svg>