<svg xmlns="http://www.w3.org/2000/svg" width="44" height="35.482" viewBox="0 0 44 35.482"><defs><style>.a{fill:#ffdcb6;}.b{fill:#ff971a;}.c{fill:#fff;}.d{fill:#ff8121;}.e{fill:none;stroke:#fff;stroke-linecap:round;stroke-linejoin:round;}</style></defs><g transform="translate(-285 -1366)"><path class="a" d="M265.561,603.005a24.744,24.744,0,0,1,6.478-4.207,64.437,64.437,0,0,1,13.662-4.429c4.632-1.035,9.4-2.221,14.158-2.407a9.338,9.338,0,0,1,4.775.787c2.442,1.3,3.6,4.329,3.5,6.981-.118,3.285-1.874,6.3-3.841,8.833-5.415,6.966-15.24,9.807-23.77,9.105a23.435,23.435,0,0,1-6.1-1.251,19.093,19.093,0,0,1-9.031-6.706c-1.487-2.081-1.892-4.743.1-6.651Z" transform="translate(20.857 783.71)"/><path class="b" d="M307.249,578.3q.142-1.24.284-2.48c.139-1.2.22-2.589-.63-3.455a4.135,4.135,0,0,0-2.242-.925l-6.586-1.275v0l-5.127-.992c-2.535-.491-8.1-3.058-8.6.88q-.857,6.806-1.716,13.612c1.325.089,8.786.652,6.916,1.931a17.842,17.842,0,0,1-7.492,2.637q-.236,1.862-.47,3.722a1.938,1.938,0,0,0,1.844,2.72l8.471,1.56h0l10.547,1.943a2.348,2.348,0,0,0,2.757-2.042q.3-2.6.6-5.2h0l1.449-12.637" transform="translate(10.458 798.096)"/><path class="c" d="M306.633,587.55a.4.4,0,0,1-.08.066.413.413,0,0,1-.572-.125,3.266,3.266,0,0,0-2.12-1.712,2.028,2.028,0,0,0-1.475.429.414.414,0,1,1-.551-.617,2.834,2.834,0,0,1,2.138-.631,4.024,4.024,0,0,1,2.705,2.085.413.413,0,0,1-.046.505" transform="translate(-1.614 787.905)"/><path class="b" d="M356.721,602.346c-.089-.42-.15-.545-.455-.647a2.18,2.18,0,0,0-2.291.639,37.821,37.821,0,0,0-3.564,4.082.291.291,0,0,1-.192.135l-2.259-2.073c-.012-.011-.023-.022-.035-.032l0,0h0a.929.929,0,0,0-.88-.257c-1.553.453.679,3.242,1.229,4.133.91,1.476,3.034,1.128,4.31-.04a24.748,24.748,0,0,0,3.814-4.422,1.908,1.908,0,0,0,.325-1.516" transform="translate(-28.424 777.938)"/><circle class="d" cx="6.672" cy="6.672" r="6.672" transform="translate(314.036 1366.826)"/><path class="e" d="M295.79,574.233l1.236,2.047.967-4.985,4.041,1.02-.2,2.486" transform="translate(21.809 799.376)"/></g></svg>