<svg xmlns="http://www.w3.org/2000/svg" width="13.507" height="21.156" viewBox="0 0 13.507 21.156"><defs><style>.a{fill:#1b1464;}</style></defs><g transform="translate(-981.521 -1945.412)"><path class="a" d="M994.558,1954.989a.47.47,0,0,0-.471.47v1.086a5.813,5.813,0,1,1-11.626-.005v-1.081a.47.47,0,0,0-.94,0v1.081a6.772,6.772,0,0,0,6.283,6.761v2.327h-2.71a.47.47,0,1,0,0,.94h6.361a.47.47,0,0,0,0-.94h-2.711V1963.3a6.772,6.772,0,0,0,6.284-6.761v-1.081A.47.47,0,0,0,994.558,1954.989Z"/><path class="a" d="M988.227,1960.79h.094a4.513,4.513,0,0,0,4.509-4.508v-6.361a4.515,4.515,0,0,0-4.509-4.509h-.094a4.514,4.514,0,0,0-4.509,4.509v6.361A4.513,4.513,0,0,0,988.227,1960.79Z"/></g></svg>