<svg xmlns="http://www.w3.org/2000/svg" width="43.206" height="28.529" viewBox="0 0 43.206 28.529"><defs><style>.a,.b{fill:#ff4d4d;}.a{stroke:rgba(0,0,0,0);stroke-miterlimit:10;}</style></defs><g transform="translate(-6340.794 -1174.901)"><path class="a" d="M20.682,27.529h-1.3a.518.518,0,0,1-.517-.517V25.681l0-23.979a1.7,1.7,0,0,1,1.7-1.7H34.3A1.7,1.7,0,0,1,36,1.7V9.691A9.105,9.105,0,0,0,34.706,9.6a8.979,8.979,0,0,0-6.044,2.331H22.473a.911.911,0,0,0,0,1.822h4.648a8.952,8.952,0,0,0-1.055,2.318H22.473a.911.911,0,0,0,0,1.822h3.26c-.018.23-.027.468-.027.708a9.082,9.082,0,0,0,.143,1.609H22.473a.91.91,0,1,0,0,1.821h3.909a9.036,9.036,0,0,0,2.769,3.652h-7.03a.916.916,0,0,0-.923.924v.407A.517.517,0,0,1,20.682,27.529ZM22.473,7.792a.91.91,0,1,0,0,1.82h9.814a.91.91,0,1,0,0-1.82Zm0-4.138a.909.909,0,1,0,0,1.819h9.814a.909.909,0,1,0,0-1.819Zm-5.85,23.875h-1.3a.517.517,0,0,1-.516-.517V26.6a.916.916,0,0,0-.923-.924H1.7a1.7,1.7,0,0,1-1.7-1.7V1.7A1.7,1.7,0,0,1,1.7,0H15.441a1.7,1.7,0,0,1,1.7,1.7V25.681l0,1.331A.518.518,0,0,1,16.623,27.529ZM3.713,20.208a.91.91,0,1,0,0,1.821h9.815a.91.91,0,1,0,0-1.821Zm0-4.139a.911.911,0,1,0,0,1.822h9.815a.911.911,0,1,0,0-1.822Zm0-4.139a.911.911,0,1,0,0,1.822h9.815a.911.911,0,1,0,0-1.822Zm0-4.137a.91.91,0,1,0,0,1.82h9.815a.91.91,0,1,0,0-1.82Zm0-4.138a.909.909,0,1,0,0,1.819h9.815a.909.909,0,1,0,0-1.819Z" transform="translate(6341.294 1175.401)"/><path class="b" d="M5655.134,1804.9a8,8,0,1,0,8.021,8.02A8,8,0,0,0,5655.134,1804.9Zm3.945,8.678h-2.964c-.125,0-.187.042-.187.189v2.943a.778.778,0,0,1-1.545,0v-2.943c0-.146-.042-.189-.187-.189h-2.964a.65.65,0,0,1-.668-.73.642.642,0,0,1,.668-.731h2.964c.146,0,.188-.062.188-.188v-2.839a.778.778,0,0,1,1.545,0v2.839a.165.165,0,0,0,.187.188h2.964a.642.642,0,0,1,.668.731A.65.65,0,0,1,5659.079,1813.577Z" transform="translate(720.845 -618.899)"/></g></svg>