<svg xmlns="http://www.w3.org/2000/svg" width="20" height="15.463" viewBox="0 0 20 15.463"><defs><style>.a{fill:#fc0;}</style></defs><path class="a" d="M4663.953,3778.918h-16.133a1.933,1.933,0,0,0-1.933,1.934v11.595a1.933,1.933,0,0,0,1.933,1.934h16.133a1.934,1.934,0,0,0,1.934-1.934v-11.595A1.934,1.934,0,0,0,4663.953,3778.918Zm-3.164,1.7a1.1,1.1,0,1,1-1.1,1.1A1.1,1.1,0,0,1,4660.789,3780.619Zm-3.26,11.237a.866.866,0,0,1-.866.866h-8.444a.866.866,0,0,1-.866-.866v-6.815a.866.866,0,0,1,.866-.866h8.444a.865.865,0,0,1,.866.866Zm-1.1-9.04h-7.979a1.1,1.1,0,0,1,0-2.2h7.979a1.1,1.1,0,0,1,0,2.2Zm8.477,9.04a.867.867,0,0,1-.866.866h-4.5a.866.866,0,0,1-.866-.866v-6.815a.866.866,0,0,1,.866-.866h4.5a.866.866,0,0,1,.866.866Zm-1.1-9.04a1.1,1.1,0,1,1,1.1-1.1A1.1,1.1,0,0,1,4663.808,3782.816Z" transform="translate(-4645.887 -3778.918)"/></svg>