<svg xmlns="http://www.w3.org/2000/svg" width="33.23" height="33.229" viewBox="0 0 33.23 33.229"><defs><style>.a{fill:#08b76c;}</style></defs><g transform="translate(-1373.246 -2711.601)"><path class="a" d="M1403.989,2724.591l-2.626-.245a14.4,14.4,0,0,0-.6-1.471l1.68-2.03a2.747,2.747,0,0,0-.175-3.712l-1.26-1.261a2.794,2.794,0,0,0-3.747-.175l-2.031,1.681a13.228,13.228,0,0,0-1.471-.63l-.244-2.626a2.777,2.777,0,0,0-2.766-2.521H1389a2.776,2.776,0,0,0-2.766,2.521l-.246,2.626a9.3,9.3,0,0,0-1.47.63l-2.031-1.681a2.8,2.8,0,0,0-3.747.175l-1.26,1.261a2.749,2.749,0,0,0-.175,3.712l1.68,2.03a8.672,8.672,0,0,0-.6,1.471l-2.626.245a2.778,2.778,0,0,0-2.521,2.766v1.751a2.777,2.777,0,0,0,2.521,2.766l2.626.246a14.29,14.29,0,0,0,.6,1.47l-1.68,2.031a2.746,2.746,0,0,0,.175,3.711l1.26,1.261a2.751,2.751,0,0,0,3.712.175l2.031-1.68a8.6,8.6,0,0,0,1.47.594l.246,2.627a2.776,2.776,0,0,0,2.766,2.521h1.75a2.777,2.777,0,0,0,2.767-2.521l.245-2.627a14.407,14.407,0,0,0,1.47-.594l2.031,1.68a2.8,2.8,0,0,0,3.747-.175l1.225-1.261a2.791,2.791,0,0,0,.175-3.746l-1.645-2a8.63,8.63,0,0,0,.595-1.47l2.626-.246a2.776,2.776,0,0,0,2.521-2.766v-1.751A2.72,2.72,0,0,0,1403.989,2724.591Zm-6.97,7.557h-1.156a3.156,3.156,0,0,1-6.039,0h-7.158a.969.969,0,0,1,0-1.938h7.195a3.156,3.156,0,0,1,6.039,0h1.156a.911.911,0,0,1,.932.969A.962.962,0,0,1,1397.019,2732.148Zm.037-5.927H1389.9a3.156,3.156,0,0,1-6.039,0H1382.7a.969.969,0,0,1,0-1.939h1.156a3.157,3.157,0,0,1,6.039,0h7.158a.969.969,0,0,1,0,1.939Z"/><path class="a" d="M1386.879,2723.984a1.268,1.268,0,1,0,0,2.535,1.28,1.28,0,0,0,1.267-1.267A1.257,1.257,0,0,0,1386.879,2723.984Z"/><path class="a" d="M1392.843,2729.912a1.267,1.267,0,0,0,0,2.535,1.235,1.235,0,0,0,1.268-1.268A1.257,1.257,0,0,0,1392.843,2729.912Z"/></g></svg>