<svg xmlns="http://www.w3.org/2000/svg" width="32.481" height="32.056" viewBox="0 0 32.481 32.056"><defs><style>.a,.b{fill:#ff4d4d;}.b{stroke-miterlimit:10;}.c,.e{fill:#fff;}.d,.e{stroke:none;}</style></defs><g transform="translate(-6660.692 -1274.178)"><path class="a" d="M5793.59,1899.629h-1.1v-3.3a3.208,3.208,0,0,0-3.3-3.3h-11a3.208,3.208,0,0,0-3.3,3.3v3.3h-1.1a5.3,5.3,0,0,0-5.5,5.5v8.8a3.207,3.207,0,0,0,3.3,3.3h3.3v3.3a3.208,3.208,0,0,0,3.3,3.3h11a3.208,3.208,0,0,0,3.3-3.3v-3.3h3.3a3.208,3.208,0,0,0,3.3-3.3v-8.8A5.3,5.3,0,0,0,5793.59,1899.629Zm-15.4-4.4h10.988a1.011,1.011,0,0,1,1.113,1.1v3.3h-13.2v-3.287A1.012,1.012,0,0,1,5778.188,1895.229Zm12.1,25.3a1.006,1.006,0,0,1-1.1,1.1h-11a1.008,1.008,0,0,1-1.1-1.1v-7.7h13.2Z" transform="translate(892.406 -618.85)"/><g class="b" transform="translate(890.75 -620.452)"><path class="d" d="M 5799.99609375 1926.060546875 C 5799.603515625 1926.060546875 5799.2294921875 1925.935668945312 5798.9140625 1925.69921875 L 5798.88525390625 1925.677856445312 L 5798.84765625 1925.650024414062 L 5798.81494140625 1925.616943359375 L 5798.78759765625 1925.589477539062 L 5794.16259765625 1920.964477539062 C 5792.96875 1921.691162109375 5791.5712890625 1922.086791992188 5790.17333984375 1922.086791992188 C 5788.40234375 1922.086791992188 5786.673828125 1921.466552734375 5785.30615234375 1920.340454101562 C 5783.72802734375 1919.039916992188 5782.7509765625 1917.203247070312 5782.5546875 1915.168579101562 C 5782.3583984375 1913.1328125 5782.96630859375 1911.142944335938 5784.26611328125 1909.565551757812 C 5785.72509765625 1907.794067382812 5787.87939453125 1906.778076171875 5790.1767578125 1906.778076171875 C 5791.94482421875 1906.778076171875 5793.67236328125 1907.398559570312 5795.041015625 1908.525268554688 C 5796.54296875 1909.763061523438 5797.5087890625 1911.509765625 5797.76025390625 1913.44384765625 C 5797.9873046875 1915.190673828125 5797.61376953125 1916.93896484375 5796.70556640625 1918.423095703125 L 5801.33154296875 1923.047485351562 L 5801.33642578125 1923.052612304688 L 5801.34130859375 1923.057739257812 L 5801.36767578125 1923.085327148438 L 5801.39111328125 1923.109619140625 L 5801.41162109375 1923.13623046875 L 5801.435546875 1923.167358398438 L 5801.4375 1923.170288085938 L 5801.43994140625 1923.173217773438 C 5801.91796875 1923.810791015625 5801.91796875 1924.701293945312 5801.43994140625 1925.338623046875 C 5801.10107421875 1925.790649414062 5800.5615234375 1926.060546875 5799.99609375 1926.060546875 Z M 5790.18359375 1910.355224609375 C 5787.95263671875 1910.355224609375 5786.1376953125 1912.170288085938 5786.1376953125 1914.4013671875 C 5786.1376953125 1916.631958007812 5787.95263671875 1918.446655273438 5790.18359375 1918.446655273438 C 5792.41455078125 1918.446655273438 5794.2294921875 1916.631958007812 5794.2294921875 1914.4013671875 C 5794.2294921875 1912.170288085938 5792.41455078125 1910.355224609375 5790.18359375 1910.355224609375 Z"/><path class="e" d="M 5799.99609375 1925.435546875 C 5800.36572265625 1925.435546875 5800.71875 1925.258666992188 5800.93994140625 1924.963623046875 C 5801.25244140625 1924.546997070312 5801.25244140625 1923.964965820312 5800.93994140625 1923.548217773438 L 5800.916015625 1923.51708984375 L 5800.8896484375 1923.489501953125 L 5795.9033203125 1918.504638671875 C 5798.02099609375 1915.528930664062 5797.5048828125 1911.365234375 5794.6435546875 1909.0078125 C 5793.38720703125 1907.973510742188 5791.80126953125 1907.403076171875 5790.1767578125 1907.403076171875 C 5788.0673828125 1907.403076171875 5786.08837890625 1908.336059570312 5784.74853515625 1909.963012695312 C 5783.55419921875 1911.412231445312 5782.99658203125 1913.239990234375 5783.1767578125 1915.108642578125 C 5783.35693359375 1916.977294921875 5784.25439453125 1918.663818359375 5785.70361328125 1919.858032226562 C 5786.95947265625 1920.892211914062 5788.54736328125 1921.461791992188 5790.17333984375 1921.461791992188 C 5791.63330078125 1921.461791992188 5793.060546875 1921.004150390625 5794.24462890625 1920.162719726562 L 5799.23046875 1925.148559570312 L 5799.2578125 1925.176025390625 L 5799.2890625 1925.19921875 C 5799.4951171875 1925.353759765625 5799.7392578125 1925.435546875 5799.99609375 1925.435546875 M 5790.18359375 1909.730224609375 C 5792.763671875 1909.730224609375 5794.8544921875 1911.820922851562 5794.8544921875 1914.4013671875 C 5794.8544921875 1916.980834960938 5792.763671875 1919.071655273438 5790.18359375 1919.071655273438 C 5787.6044921875 1919.071655273438 5785.5126953125 1916.980834960938 5785.5126953125 1914.4013671875 C 5785.5126953125 1911.820922851562 5787.6044921875 1909.730224609375 5790.18359375 1909.730224609375 M 5799.99609375 1926.685546875 C 5799.46875 1926.685546875 5798.966796875 1926.5185546875 5798.54345703125 1926.202392578125 L 5798.5126953125 1926.1796875 L 5798.43798828125 1926.1240234375 L 5798.3720703125 1926.057983398438 L 5798.3447265625 1926.030517578125 L 5794.05712890625 1921.742797851562 C 5792.8662109375 1922.372314453125 5791.52001953125 1922.711791992188 5790.17333984375 1922.711791992188 C 5788.2578125 1922.711791992188 5786.38818359375 1922.041015625 5784.9091796875 1920.822998046875 C 5783.20166015625 1919.416015625 5782.14453125 1917.429321289062 5781.9326171875 1915.228637695312 C 5781.72021484375 1913.026733398438 5782.3779296875 1910.874389648438 5783.78369140625 1909.168090820312 C 5785.36181640625 1907.252075195312 5787.69189453125 1906.153076171875 5790.1767578125 1906.153076171875 C 5792.08935546875 1906.153076171875 5793.9580078125 1906.82421875 5795.43798828125 1908.042724609375 C 5797.0634765625 1909.381958007812 5798.1083984375 1911.271362304688 5798.38037109375 1913.36328125 C 5798.60400390625 1915.086059570312 5798.28759765625 1916.810424804688 5797.4853515625 1918.318481445312 L 5801.7734375 1922.60546875 L 5801.78369140625 1922.615600585938 L 5801.79345703125 1922.6259765625 L 5801.81982421875 1922.653564453125 L 5801.8662109375 1922.7021484375 L 5801.9072265625 1922.755249023438 L 5801.93115234375 1922.786376953125 L 5801.935546875 1922.792358398438 L 5801.93994140625 1922.79833984375 C 5802.58349609375 1923.656616210938 5802.58349609375 1924.85546875 5801.93994140625 1925.713623046875 C 5801.48388671875 1926.322143554688 5800.7568359375 1926.685546875 5799.99609375 1926.685546875 Z M 5790.18359375 1910.980224609375 C 5788.29736328125 1910.980224609375 5786.7626953125 1912.514892578125 5786.7626953125 1914.4013671875 C 5786.7626953125 1916.287353515625 5788.29736328125 1917.821655273438 5790.18359375 1917.821655273438 C 5792.06982421875 1917.821655273438 5793.6044921875 1916.287353515625 5793.6044921875 1914.4013671875 C 5793.6044921875 1912.514892578125 5792.06982421875 1910.980224609375 5790.18359375 1910.980224609375 Z"/></g><circle class="c" cx="4.17" cy="4.17" r="4.17" transform="translate(6676.706 1289.525)"/></g></svg>