<svg xmlns="http://www.w3.org/2000/svg" width="20.088" height="23.969" viewBox="0 0 20.088 23.969"><defs><style>.a{fill:#126ce3;}</style></defs><path class="a" d="M5703.374,2291.438a49.927,49.927,0,0,0-.844-5.586.561.561,0,0,0-.569-.445h-.047c-3.573-.015-6.712-1.212-7.807-2.657a.565.565,0,0,0-.537-.367v0a.559.559,0,0,0-.462.251c-1.026,1.487-4.276,2.752-8,2.774h-.022a.539.539,0,0,0-.627.438,49.869,49.869,0,0,0-.844,5.585c-.282,3.058-.34,6.638.9,8.95.926,1.732,3.117,3.124,5.072,4.183a33.725,33.725,0,0,0,3.536,1.665.652.652,0,0,0,.75,0h0a33.306,33.306,0,0,0,3.531-1.66c1.956-1.06,4.143-2.452,5.069-4.184C5703.713,2298.076,5703.655,2294.5,5703.374,2291.438Zm-8.987,8.355v.025a.889.889,0,1,1-1.778-.025v-.807a.89.89,0,0,1,.875-.9h.028a.89.89,0,0,1,.875.9Zm0-4.269v.881a.889.889,0,0,1-1.777-.025v-1.507a.889.889,0,0,1,.132-.59c.013-.021.027-.042.041-.063l.014-.016.023-.027c.013-.016.026-.03.04-.044l.014-.015c.016-.016.033-.031.051-.046l.009-.012a.886.886,0,0,1,.551-.2h.058a2.021,2.021,0,1,0-1.97-2.039v.019a.889.889,0,1,1-1.777-.036,3.763,3.763,0,0,1,3.724-3.761v.008a3.8,3.8,0,0,1,.868,7.476Z" transform="translate(-5683.453 -2282.383)"/></svg>