<svg xmlns="http://www.w3.org/2000/svg" width="20" height="20" viewBox="0 0 20 20"><defs><style>.pencil-a{fill:#fff;}</style></defs><path class="pencil-a" d="M474.912,450.476s-.393-.594-.473-.7l-9.044,9.052a.814.814,0,0,1-1.14,0,.809.809,0,0,1,0-1.14l9.181-9.173c-.209-.257-.393-.465-.506-.578l-1.364-1.372c-.088-.088-.249-.233-.449-.4l-9.2,9.189a.8.8,0,0,1-1.132,0,.8.8,0,0,1,0-1.132l9.06-9.068-.835-.57a1.336,1.336,0,0,0-1.677.169l-9.919,9.927a2.062,2.062,0,0,0-.546.939l-1.692,6.741a1.609,1.609,0,0,0,1.952,1.953l6.747-1.689a2.181,2.181,0,0,0,.939-.546l9.919-9.927A1.336,1.336,0,0,0,474.912,450.476Zm-12.126,11.612-3.732,1.019a.387.387,0,0,1-.385-.1l-2.183-2.183a.4.4,0,0,1-.1-.385L457.4,456.7a.562.562,0,0,1,.867-.313l.152.1a16.807,16.807,0,0,1,2.319,1.942l.3.289a18.182,18.182,0,0,1,1.894,2.255l.169.241A.566.566,0,0,1,462.786,462.089Z" transform="translate(-455.129 -444.365)"/></svg>