<svg xmlns="http://www.w3.org/2000/svg" width="20" height="20" viewBox="0 0 20 20"><defs><style>.a{fill:#7931cd;}</style></defs><path class="a" d="M3.038,5.917A1.49,1.49,0,0,0,4.72,7.448,1.49,1.49,0,0,0,6.4,5.917V-.626c0-.325.136-.418.409-.418h6.455A1.436,1.436,0,0,0,14.72-2.668c0-.882-.409-1.624-1.455-1.624H6.811A.365.365,0,0,1,6.4-4.71v-6.311A1.49,1.49,0,0,0,4.72-12.552a1.49,1.49,0,0,0-1.682,1.531V-4.71c0,.278-.091.418-.409.418H-3.825c-1.045,0-1.455.742-1.455,1.624A1.436,1.436,0,0,0-3.825-1.044H2.629c.318,0,.409.093.409.418Z" transform="translate(5.28 12.552)"/></svg>