<svg xmlns="http://www.w3.org/2000/svg" width="14" height="14" viewBox="0 0 14 14"><defs><style>.a{fill:#b8c6d4;}</style></defs><path class="a" d="M.543.376A1.043,1.043,0,0,0,1.72,1.448,1.043,1.043,0,0,0,2.9.376V-4.2c0-.227.1-.292.286-.292H7.7A1,1,0,0,0,8.72-5.633C8.72-6.25,8.434-6.77,7.7-6.77H3.184A.256.256,0,0,1,2.9-7.062V-11.48A1.043,1.043,0,0,0,1.72-12.552,1.043,1.043,0,0,0,.543-11.48v4.418c0,.195-.064.292-.286.292H-4.262c-.732,0-1.018.52-1.018,1.137A1,1,0,0,0-4.262-4.5H.256c.223,0,.286.065.286.292Z" transform="translate(5.28 12.552)"/></svg>