<svg xmlns="http://www.w3.org/2000/svg" width="31.749" height="31.749" viewBox="0 0 31.749 31.749"><defs><style>.a{fill:#ff4d4d;}</style></defs><path class="a" d="M5650.757,2001.839h-1.134v-3.4a3.306,3.306,0,0,0-3.4-3.4h-11.34a3.306,3.306,0,0,0-3.4,3.4v3.4h-1.133a5.467,5.467,0,0,0-5.67,5.67v9.071a3.306,3.306,0,0,0,3.4,3.4h3.4v3.4a3.306,3.306,0,0,0,3.4,3.4h11.34a3.306,3.306,0,0,0,3.4-3.4v-3.4h3.4a3.306,3.306,0,0,0,3.4-3.4v-9.071A5.467,5.467,0,0,0,5650.757,2001.839Zm-15.875-4.536h11.326a1.042,1.042,0,0,1,1.147,1.134v3.4h-13.607v-3.388A1.042,1.042,0,0,1,5634.883,1997.3Zm12.473,26.08a1.037,1.037,0,0,1-1.133,1.134h-11.34a1.038,1.038,0,0,1-1.134-1.134v-7.937h13.607Z" transform="translate(-5624.678 -1995.035)"/></svg>