<svg xmlns="http://www.w3.org/2000/svg" width="20" height="19.839" viewBox="0 0 20 19.839"><defs><style>.a{fill:#2a044a;}</style></defs><path class="a" d="M1493.018,2629.927a5.753,5.753,0,0,1,.158-5.058c1.488-2.883,5.141-5,8.988-5.244v-3.178a.457.457,0,0,1,.7-.386L1512.3,2622a.456.456,0,0,1,0,.771l-9.431,5.943a.455.455,0,0,1-.7-.385v-2.822c-2.355.686-3.719,1.863-3.958,3.427-.338,2.215,1.579,4.863,3.547,6.046a.456.456,0,0,1-.235.846A10.8,10.8,0,0,1,1493.018,2629.927Z" transform="translate(-1492.508 -2615.991)"/></svg>