<svg xmlns="http://www.w3.org/2000/svg" width="31.41" height="21.149" viewBox="0 0 31.41 21.149"><defs><style>.a{fill:#1b1464;}.b{fill:#fff;}</style></defs><g transform="translate(-973.569 -1983.418)"><path class="a" d="M980.443,1984.079a.661.661,0,0,0-.661-.661h-2.169a.661.661,0,0,0,0,1.322h2.169A.66.66,0,0,0,980.443,1984.079Z"/><path class="a" d="M974.23,2000.426a.661.661,0,0,0,.661-.661V1997.6a.661.661,0,0,0-1.322,0v2.169A.661.661,0,0,0,974.23,2000.426Z"/><path class="a" d="M975.947,2003.224v0a1.332,1.332,0,0,1-1.008-.935.661.661,0,0,0-1.283.321l.011.039a2.634,2.634,0,0,0,2.016,1.873.661.661,0,0,0,.264-1.3Z"/><path class="a" d="M988.124,2003.249v0h-2.168a.661.661,0,1,0,0,1.322h2.189a.651.651,0,0,0,.649-.653v-.008A.671.671,0,0,0,988.124,2003.249Z"/><path class="a" d="M983.9,2003.249v0h-2.168a.661.661,0,1,0,0,1.322h2.189a.651.651,0,0,0,.649-.653v-.008A.671.671,0,0,0,983.9,2003.249Z"/><path class="a" d="M979.809,2003.249v0h-2.168a.661.661,0,1,0,0,1.322h2.189a.65.65,0,0,0,.649-.653v-.008A.671.671,0,0,0,979.809,2003.249Z"/><path class="a" d="M974.23,1995.74a.661.661,0,0,0,.661-.661v-2.169a.661.661,0,0,0-1.322,0v2.169A.661.661,0,0,0,974.23,1995.74Z"/><path class="a" d="M993,1984.084a.661.661,0,0,0-.661-.661h-2.168a.661.661,0,0,0,0,1.322h2.168A.661.661,0,0,0,993,1984.084Z"/><path class="a" d="M988.881,1984.084a.661.661,0,0,0-.661-.661h-2.168a.661.661,0,0,0,0,1.322h2.168A.661.661,0,0,0,988.881,1984.084Z"/><path class="a" d="M984.561,1984.084a.661.661,0,0,0-.661-.661h-2.168a.661.661,0,0,0,0,1.322H983.9A.661.661,0,0,0,984.561,1984.084Z"/><path class="a" d="M974.23,1990.976a.661.661,0,0,0,.661-.661v-2.172a.661.661,0,0,0-1.322,0v2.172A.661.661,0,0,0,974.23,1990.976Z"/><path class="a" d="M975.7,1983.469a2.632,2.632,0,0,0-2.027,1.862.642.642,0,0,0-.026.185.66.66,0,0,0,1.3.18,1.333,1.333,0,0,1,1.012-.929.661.661,0,1,0-.254-1.3Z"/><path class="a" d="M998.475,1984.74h2.17a.661.661,0,1,0,0-1.322h-2.17a.661.661,0,0,0,0,1.322Z"/><path class="a" d="M1004.318,1988.092a.661.661,0,0,0-.661.661v2.171a.661.661,0,0,0,1.322,0v-2.171A.661.661,0,0,0,1004.318,1988.092Z"/><path class="a" d="M1002.594,1984.762a1.333,1.333,0,0,1,1.012.929.66.66,0,0,0,1.3-.18.674.674,0,0,0-.026-.184,2.631,2.631,0,0,0-2.028-1.862.661.661,0,1,0-.254,1.3Z"/><path class="a" d="M994.344,1984.745h2.168a.661.661,0,0,0,.661-.661v0a.661.661,0,0,0-.661-.661h-2.168a.661.661,0,0,0,0,1.322Z"/><path class="b" d="M997.173,1994.508a3.969,3.969,0,1,0,3.97,3.97A3.971,3.971,0,0,0,997.173,1994.508Zm0,6.046a2.076,2.076,0,1,1,2.076-2.077A2.076,2.076,0,0,1,997.176,2000.554Z"/><path class="a" d="M1002.888,1993.211H1001.7v-.254a1.467,1.467,0,0,0-1.467-1.466h-6.111a1.467,1.467,0,0,0-1.467,1.466v.254h-1.193a2.091,2.091,0,0,0-2.091,2.091v7.175a2.091,2.091,0,0,0,2.091,2.09h11.429a2.091,2.091,0,0,0,2.091-2.09V1995.3A2.091,2.091,0,0,0,1002.888,1993.211Zm-5.715,9.236a3.969,3.969,0,1,1,3.97-3.969A3.971,3.971,0,0,1,997.173,2002.447Z"/><path class="a" d="M997.176,1996.4a2.076,2.076,0,1,0,2.076,2.076A2.076,2.076,0,0,0,997.176,1996.4Z"/></g></svg>