<svg xmlns="http://www.w3.org/2000/svg" xmlns:xlink="http://www.w3.org/1999/xlink" width="17" height="16" viewBox="0 0 17 16"><defs><style>.a{fill:#2a044a;}.b{clip-path:url(#a);}</style><clipPath id="a"><path class="a" d="M0,0H17V-16H0Z"/></clipPath></defs><g transform="translate(0 16)"><g class="b"><path class="a" d="M13.907-1.593a.744.744,0,0,1-.53-.22.75.75,0,0,1,0-1.061A7.2,7.2,0,0,0,15.5-8a7.2,7.2,0,0,0-2.123-5.127.75.75,0,0,1,0-1.061.75.75,0,0,1,1.061,0A8.692,8.692,0,0,1,17-8a8.692,8.692,0,0,1-2.563,6.187.748.748,0,0,1-.53.22ZM11.243-3.007a.744.744,0,0,1-.53-.22.75.75,0,0,1,0-1.061,5.256,5.256,0,0,0,0-7.425.75.75,0,0,1,0-1.061.75.75,0,0,1,1.061,0A6.706,6.706,0,0,1,13.751-8a6.706,6.706,0,0,1-1.977,4.773.748.748,0,0,1-.53.22h0ZM8.578-4.422a.744.744,0,0,1-.53-.22.75.75,0,0,1,0-1.061,3.254,3.254,0,0,0,0-4.6.75.75,0,0,1,0-1.061.75.75,0,0,1,1.061,0,4.756,4.756,0,0,1,0,6.718.748.748,0,0,1-.53.22Z"/><path class="a" d="M6.5-1a.5.5,0,0,1-.354-.146L2.292-5H.5A.5.5,0,0,1,0-5.5v-5A.5.5,0,0,1,.5-11H2.292l3.854-3.854a.5.5,0,0,1,.545-.108A.5.5,0,0,1,7-14.5v13a.5.5,0,0,1-.309.462A.493.493,0,0,1,6.5-1Z"/></g></g></svg>