<svg xmlns="http://www.w3.org/2000/svg" width="27.766" height="34.192" viewBox="0 0 27.766 34.192"><defs><style>.a{fill:#2a044a;}.b{fill:#ffc800;fill-rule:evenodd;}</style></defs><g transform="translate(-6701.299 -1569.219)"><path class="a" d="M5716.725,2139.459v8.164h8.93l-8.886-8.885Z" transform="translate(1002.406 -568.85)"/><g transform="translate(1002.406 -568.85)"><path class="b" d="M5717.512,2140.282l6.925,6.906h-6.925Zm8.893,6.075a.963.963,0,0,1,.254.643v22.558a2.7,2.7,0,0,1-2.7,2.7H5701.6a2.7,2.7,0,0,1-2.7-2.7v-28.786a2.7,2.7,0,0,1,2.7-2.7h16.133a.975.975,0,0,1,.7.295l0,0,7.937,7.937.012.012.017.02Z"/></g><path class="a" d="M5717.019,2159.89l-2.829,2.829-4.243-4.243-8.487,8.487h22.631Z" transform="translate(1002.406 -568.85)"/><circle class="a" cx="2.835" cy="2.835" r="2.835" transform="translate(6719.446 1583.076)"/></g></svg>