<svg xmlns="http://www.w3.org/2000/svg" width="22" height="10.15" viewBox="0 0 22 10.15"><defs><style>.a{fill:#29b4e8;}</style></defs><g transform="translate(0 0)"><path class="a" d="M4660.323,3755.941l-.732-2.406h-3.686l-.732,2.406h-2.31l3.568-10.15h2.62l3.583,10.15Zm-1.245-4.2q-1.016-3.271-1.145-3.7t-.183-.678q-.227.885-1.307,4.377Z" transform="translate(-4652.863 -3745.791)"/></g><g transform="translate(12.797 0.041)"><path class="a" d="M4675.2,3745.84h2.164l-3.437,10.109h-2.337l-3.429-10.109h2.164l1.9,6.016q.158.532.328,1.241t.211.985a17.834,17.834,0,0,1,.519-2.226Z" transform="translate(-4668.159 -3745.84)"/></g><g transform="translate(8.42)"><line x2="3.905" y2="10.15" transform="translate(0.47)"/><path class="a" d="M4666.183,3755.949l-3.255-10.109h2.064l3.432,10.109Z" transform="translate(-4662.928 -3745.799)"/></g></svg>