<svg xmlns="http://www.w3.org/2000/svg" width="33.23" height="33.229" viewBox="0 0 33.23 33.229"><defs><style>.a{fill:#08b76c;}</style></defs><g transform="translate(-1301.161 -2710.21)"><path class="a" d="M1331.9,2723.2l-2.626-.245a14.176,14.176,0,0,0-.595-1.471l1.68-2.031a2.746,2.746,0,0,0-.175-3.711l-1.26-1.261a2.794,2.794,0,0,0-3.747-.175l-2.031,1.681a13.37,13.37,0,0,0-1.471-.631l-.244-2.626a2.778,2.778,0,0,0-2.766-2.521h-1.751a2.777,2.777,0,0,0-2.766,2.521l-.246,2.626a9.426,9.426,0,0,0-1.471.631l-2.03-1.681a2.8,2.8,0,0,0-3.747.175l-1.26,1.261a2.748,2.748,0,0,0-.175,3.711l1.68,2.031a8.606,8.606,0,0,0-.595,1.471l-2.626.245a2.776,2.776,0,0,0-2.521,2.766v1.751a2.777,2.777,0,0,0,2.521,2.766l2.626.245a14.314,14.314,0,0,0,.595,1.471l-1.68,2.031a2.746,2.746,0,0,0,.175,3.711l1.26,1.261a2.751,2.751,0,0,0,3.712.175l2.031-1.681a8.63,8.63,0,0,0,1.47.595l.246,2.626a2.776,2.776,0,0,0,2.766,2.521h1.75a2.777,2.777,0,0,0,2.767-2.521l.245-2.626a14.3,14.3,0,0,0,1.47-.595l2.031,1.681a2.8,2.8,0,0,0,3.747-.175l1.225-1.261a2.791,2.791,0,0,0,.175-3.746l-1.645-2a8.639,8.639,0,0,0,.6-1.471l2.626-.245a2.777,2.777,0,0,0,2.521-2.766v-1.751A2.719,2.719,0,0,0,1331.9,2723.2Zm-5.109,6.648a3.115,3.115,0,0,1-.435.424,3.816,3.816,0,0,1-2.494.838h-.018a10.623,10.623,0,0,1-3.238-.724,3.607,3.607,0,0,0-1.173-.185.759.759,0,0,0-.636.353l-.009.009a1.276,1.276,0,0,0-.141,1.394,4.752,4.752,0,0,0,1.05,1.367,1.789,1.789,0,0,1,.158,2.277,1.97,1.97,0,0,1-1.473.917.589.589,0,0,1-.093.009,1.834,1.834,0,0,1-.392-.027c-4.66-1.091-8.884-4.42-8.884-9.449a9.318,9.318,0,0,1,18.633,0A4.4,4.4,0,0,1,1326.8,2729.849Z"/><circle class="a" cx="2.08" cy="2.08" r="2.08" transform="translate(1311.454 2726.825)"/><circle class="a" cx="2.08" cy="2.08" r="2.08" transform="translate(1312.301 2721.743)"/><circle class="a" cx="2.08" cy="2.08" r="2.08" transform="translate(1317.665 2720.046)"/><circle class="a" cx="2.08" cy="2.08" r="2.08" transform="translate(1321.053 2723.717)"/></g></svg>