<svg xmlns="http://www.w3.org/2000/svg" width="34.364" height="34.363" viewBox="0 0 34.364 34.363"><defs><style>.a{fill:#126ce3;}</style></defs><path class="a" d="M1260.622,2983.9l-2.715-.254a15.063,15.063,0,0,0-.616-1.521l1.738-2.1a2.841,2.841,0,0,0-.181-3.838l-1.3-1.3a2.888,2.888,0,0,0-3.874-.181l-2.1,1.738a13.98,13.98,0,0,0-1.521-.652l-.253-2.715a2.873,2.873,0,0,0-2.861-2.607h-1.811a2.872,2.872,0,0,0-2.86,2.607l-.254,2.715a9.76,9.76,0,0,0-1.521.652l-2.1-1.738a2.89,2.89,0,0,0-3.874.181l-1.3,1.3a2.844,2.844,0,0,0-.181,3.838l1.738,2.1a8.9,8.9,0,0,0-.615,1.521l-2.716.254a2.87,2.87,0,0,0-2.607,2.86v1.811a2.872,2.872,0,0,0,2.607,2.86l2.716.254a14.889,14.889,0,0,0,.615,1.521l-1.738,2.1a2.842,2.842,0,0,0,.181,3.838l1.3,1.3a2.844,2.844,0,0,0,3.838.181l2.1-1.738a8.9,8.9,0,0,0,1.521.615l.254,2.716a2.871,2.871,0,0,0,2.86,2.607h1.811a2.871,2.871,0,0,0,2.86-2.607l.254-2.716a14.836,14.836,0,0,0,1.521-.615l2.1,1.738a2.89,2.89,0,0,0,3.874-.181l1.268-1.3a2.888,2.888,0,0,0,.181-3.874l-1.7-2.064a8.966,8.966,0,0,0,.615-1.521l2.716-.254a2.871,2.871,0,0,0,2.607-2.86v-1.811A2.811,2.811,0,0,0,1260.622,2983.9Zm-5.7,4.042-12.616,7.284a.341.341,0,0,1-.511-.295v-14.567a.341.341,0,0,1,.511-.295l12.616,7.283A.341.341,0,0,1,1254.921,2987.937Z" transform="translate(-1228.83 -2970.461)"/></svg>