<svg xmlns="http://www.w3.org/2000/svg" width="20" height="19.84" viewBox="0 0 20 19.84"><defs><style>.a{fill:#2a044a;}</style></defs><path class="a" d="M1503.5,2598.133a.456.456,0,0,1-.235-.846c1.969-1.183,3.885-3.831,3.548-6.046-.238-1.562-1.6-2.741-3.957-3.427v2.823a.455.455,0,0,1-.7.385l-9.432-5.943a.457.457,0,0,1,0-.771l9.432-5.944a.456.456,0,0,1,.7.386v3.178c3.849.247,7.5,2.361,8.99,5.244a5.756,5.756,0,0,1,.158,5.058A10.8,10.8,0,0,1,1503.5,2598.133Z" transform="translate(-1492.509 -2578.293)"/></svg>