<svg xmlns="http://www.w3.org/2000/svg" width="22" height="22" viewBox="0 0 22 22"><defs><style>.a{fill:#08b76c;}</style></defs><g transform="translate(-1748.63 -199.339)"><path class="a" d="M1761.2,211.133a.769.769,0,0,0,0,1.538h.039a.75.75,0,0,0,.731-.768A.77.77,0,0,0,1761.2,211.133Z" transform="translate(0.306 0.306)"/><path class="a" d="M1757.575,209.074v0a.778.778,0,0,0,.769-.765v0a.77.77,0,1,0-.769.771Z" transform="translate(0.212 0.212)"/><path class="a" d="M1768.983,207.941l-1.741-.162a9.461,9.461,0,0,0-.394-.974l1.112-1.344a1.819,1.819,0,0,0-.116-2.458l-.835-.835a1.849,1.849,0,0,0-2.479-.116l-1.345,1.112a8.58,8.58,0,0,0-.973-.417l-.162-1.741a1.844,1.844,0,0,0-1.831-1.669h-1.159a1.843,1.843,0,0,0-1.83,1.669l-.163,1.741a6.135,6.135,0,0,0-.974.417l-1.345-1.112a1.849,1.849,0,0,0-2.479.116l-.834.835a1.819,1.819,0,0,0-.116,2.458l1.112,1.344a5.741,5.741,0,0,0-.394.974l-1.741.162a1.836,1.836,0,0,0-1.668,1.831v1.158a1.843,1.843,0,0,0,1.668,1.831l1.741.162a9.5,9.5,0,0,0,.394.974l-1.112,1.344a1.819,1.819,0,0,0,.116,2.458l.834.835a1.822,1.822,0,0,0,2.458.116l1.344-1.112a5.747,5.747,0,0,0,.975.393l.162,1.741a1.838,1.838,0,0,0,1.831,1.668h1.158a1.844,1.844,0,0,0,1.831-1.668l.161-1.741a9.42,9.42,0,0,0,.974-.393l1.344,1.112a1.853,1.853,0,0,0,2.48-.116l.811-.835a1.849,1.849,0,0,0,.116-2.479l-1.09-1.321a5.565,5.565,0,0,0,.394-.974l1.741-.162a1.844,1.844,0,0,0,1.669-1.831v-1.158A1.8,1.8,0,0,0,1768.983,207.941Zm-13.788-.024h.718a1.962,1.962,0,0,1,3.754,0h4.45a.6.6,0,0,1,0,1.205h-4.45a1.962,1.962,0,0,1-3.754,0h-.718a.6.6,0,0,1,0-1.205Zm9.5,4.295a.6.6,0,0,1-.6.595h-.717a1.962,1.962,0,0,1-3.754,0h-4.5a.6.6,0,0,1,.049-1.205h4.473a1.963,1.963,0,0,1,3.754,0h.717a.408.408,0,0,1,.05,0,.566.566,0,0,1,.528.6Z" transform="translate(0 0)"/></g></svg>