<svg xmlns="http://www.w3.org/2000/svg" width="21.003" height="21.003" viewBox="0 0 21.003 21.003"><defs><style>.a{fill:#2a044a;}</style></defs><g transform="translate(-1492.665 -2653.76)"><path class="a" d="M1506.906,2666.908a8.037,8.037,0,1,0-1.093,1.093l6.607,6.606a.78.78,0,0,0,1.092-1.092Zm-12.668-5.1a6.477,6.477,0,1,1,6.5,6.451h-.026A6.477,6.477,0,0,1,1494.238,2661.81Z"/><path class="a" d="M1503.108,2661.03h-1.613v-1.613a.78.78,0,1,0-1.56,0v1.613h-1.613a.78.78,0,0,0,0,1.56h1.613v1.613a.78.78,0,1,0,1.56,0v-1.613h1.613a.78.78,0,0,0,0-1.56Z"/></g></svg>